# xmcd
#
# Track frame offsets:
#  150
#  20624
#  44354
#  77799
#  98133
#  125332
#  156798
#  174113
#  196746
#
# Disc length: 3302 seconds
#
# Revision: 0
# Processed by: cddbd v1.5.1PL0 Copyright (c) Steve Scherf et al.
# Submitted via: Collectorz.com_Music_Collector 6.9
#
DISCID=640ce409
DTITLE=Rich Harper - Onward...
DYEAR=2004
DGENRE=Blues -  Blues Electric
TTITLE0=Workin' On Me
TTITLE1=Onward (Imagine That)
TTITLE2=Return Mail Blues
TTITLE3=Recalcitrant Blues
TTITLE4=Goin' Down
TTITLE5=How Much I Want You
TTITLE6=No More
TTITLE7=Barrelhouse Stomp
TTITLE8=Hey Joe
EXTD=
EXTT0=
EXTT1=
EXTT2=
EXTT3=
EXTT4=
EXTT5=
EXTT6=
EXTT7=
EXTT8=
PLAYORDER=
